<svg width="14" height="14" viewBox="0 0 14 14" fill="none" xmlns="http://www.w3.org/2000/svg">
<path fill-rule="evenodd" clip-rule="evenodd" d="M14 2.54544C14 3.50381 12.5435 4.33849 10.3915 4.77274C12.5435 5.20695 14 6.04163 14 7C14 7.95837 12.5435 8.79305 10.3915 9.22726C12.5435 9.6615 14 10.4962 14 11.4546C14 12.8604 10.866 14 7 14C3.134 14 0 12.8604 0 11.4546C0 10.4962 1.4565 9.6615 3.6085 9.22726C1.4565 8.79305 0 7.95837 0 7C0 6.04163 1.4565 5.20695 3.6085 4.77274C1.4565 4.33849 0 3.50381 0 2.54544C0 1.13964 3.134 0 7 0C10.866 0 14 1.13964 14 2.54544Z" fill="white"/>
</svg>
